<?xml version="1.0" standalone="no"?>
<!DOCTYPE svg PUBLIC "-//W3C//DTD SVG 20010904//EN"
 "http://www.w3.org/TR/2001/REC-SVG-20010904/DTD/svg10.dtd">
<svg version="1.0" xmlns="http://www.w3.org/2000/svg"
 width="900.000000pt" height="429.000000pt" viewBox="0 0 900.000000 429.000000"
 preserveAspectRatio="xMidYMid meet">
<metadata>
Created by potrace 1.10, written by Peter Selinger 2001-2011
</metadata>
<g transform="translate(0.000000,429.000000) scale(0.100000,-0.100000)"
fill="#000000" stroke="none">
<path d="M2800 3710 c-220 -31 -370 -116 -539 -305 -63 -71 -111 -150 -111
-185 0 -14 11 -38 24 -55 l24 -30 110 2 c61 1 129 7 152 13 50 14 65 4 45 -30
-36 -62 -55 -107 -55 -132 0 -44 41 -82 112 -103 35 -10 67 -22 73 -27 6 -5
-5 -36 -29 -81 -31 -57 -38 -79 -32 -101 11 -44 50 -73 109 -81 85 -10 107
-16 107 -28 0 -6 -16 -38 -36 -71 -63 -102 -53 -178 32 -239 44 -31 166 -76
206 -77 34 0 44 -15 20 -32 -58 -41 -79 -186 -43 -297 12 -35 21 -87 21 -116
0 -49 -3 -55 -40 -86 -134 -113 -123 -99 -117 -147 4 -38 13 -53 61 -100 31
-30 56 -61 56 -69 0 -7 -39 -54 -86 -103 -73 -75 -86 -94 -87 -124 0 -19 5
-42 13 -51 19 -23 73 -43 133 -50 199 -23 247 -53 272 -170 4 -16 16 -45 26
-62 30 -49 78 -58 214 -44 165 18 288 53 441 126 150 72 275 168 375 288 51
60 62 99 33 115 -26 15 -54 2 -93 -41 -20 -22 -45 -50 -56 -62 -82 -89 -257
-205 -366 -244 -35 -13 -71 -26 -80 -31 -16 -8 -162 -38 -286 -58 -91 -15 -99
-11 -123 67 -23 77 -66 133 -118 160 -42 21 -169 51 -216 51 -66 0 -65 14 7
87 107 107 113 176 26 268 l-50 53 44 31 c116 79 142 175 92 329 -23 70 -17
167 12 207 12 17 52 45 90 63 37 18 79 39 93 46 32 15 32 44 -1 68 -21 16 -42
19 -110 19 -46 0 -113 6 -149 14 -36 8 -81 17 -101 20 -45 7 -89 46 -89 78 0
13 8 35 18 48 9 13 30 52 46 86 26 56 28 64 16 93 -18 44 -44 58 -130 70 -40
6 -76 13 -79 15 -3 3 10 34 27 68 60 117 34 174 -94 207 -67 17 -69 28 -23 99
46 71 54 118 25 150 -27 30 -65 34 -200 20 -68 -7 -131 -9 -140 -6 -25 10 -10
32 100 146 106 111 183 163 309 207 73 26 92 29 220 29 157 0 229 -14 375 -72
268 -108 524 -323 662 -558 19 -33 56 -103 83 -155 83 -165 197 -320 235 -320
10 0 25 11 33 24 14 20 14 27 1 51 -8 15 -28 43 -44 62 -44 49 -75 101 -148
243 -86 168 -157 273 -255 376 -210 223 -486 380 -757 433 -75 14 -223 20
-290 11z"/>
<path d="M5865 3698 c-179 -44 -328 -107 -475 -204 -223 -146 -385 -325 -497
-549 -64 -128 -139 -251 -190 -314 -23 -29 -43 -60 -43 -68 0 -28 21 -53 44
-53 46 0 125 110 251 350 97 186 144 251 274 380 342 338 804 466 1130 313
109 -52 201 -129 305 -255 44 -55 43 -83 -1 -74 -79 16 -238 25 -273 16 -73
-20 -77 -84 -13 -178 45 -65 39 -81 -35 -97 -126 -29 -153 -99 -83 -211 28
-45 29 -50 14 -61 -9 -7 -33 -13 -52 -13 -91 0 -151 -42 -151 -104 0 -18 14
-56 33 -87 52 -88 60 -109 45 -128 -22 -29 -53 -51 -73 -51 -11 -1 -38 -8 -60
-16 -23 -8 -94 -17 -170 -20 -71 -3 -138 -10 -147 -15 -21 -11 -24 -59 -6 -77
7 -7 20 -12 30 -12 31 0 95 -38 142 -83 62 -59 67 -93 33 -227 -32 -126 -33
-154 -7 -213 19 -42 38 -62 120 -126 l25 -20 -52 -51 c-88 -88 -81 -155 29
-266 62 -64 67 -84 20 -84 -41 0 -184 -28 -212 -42 -79 -39 -123 -96 -136
-177 -11 -67 -29 -76 -121 -62 -299 48 -436 98 -603 221 -56 42 -110 92 -207
196 -31 34 -80 33 -89 -1 -8 -34 11 -62 115 -165 198 -197 449 -311 755 -341
171 -17 220 10 246 137 18 87 79 119 259 139 127 13 178 66 137 143 -8 15 -44
56 -80 91 -88 84 -92 102 -35 155 105 98 105 150 -1 215 -92 56 -108 111 -69
226 42 123 33 223 -28 303 -14 18 -22 36 -19 39 4 4 35 10 70 14 106 13 221
85 232 146 9 49 -10 126 -45 177 -16 23 -26 47 -22 54 3 6 38 16 76 22 39 6
80 18 92 26 53 34 55 99 5 179 -29 47 -32 75 -8 75 33 0 114 32 139 55 20 19
27 35 27 63 0 38 -30 114 -49 126 -6 4 -11 16 -11 28 0 16 4 19 23 14 45 -13
213 -27 252 -21 120 19 112 114 -24 269 -147 167 -249 231 -477 297 -40 12
-307 9 -359 -3z"/>
<path d="M4027 3383 c-16 -16 -3 -31 61 -67 90 -52 198 -163 239 -246 74 -147
68 -46 68 -1230 l0 -1065 -37 -65 c-54 -96 -156 -184 -273 -235 -28 -13 -56
-30 -63 -38 -29 -35 2 -37 464 -35 432 3 449 4 449 22 0 13 -21 30 -72 56
-162 83 -245 167 -289 293 -22 62 -21 2040 1 2146 36 168 142 311 296 397 123
69 125 69 -387 72 -248 1 -454 -1 -457 -5z"/>
<path d="M2891 3354 c-12 -15 -21 -37 -21 -49 0 -36 37 -74 78 -80 186 -28
298 -121 395 -326 34 -73 79 -190 92 -239 7 -28 10 -35 58 -141 49 -108 104
-183 195 -269 143 -135 225 -180 452 -251 58 -17 126 -34 152 -37 43 -4 48 -2
57 20 11 30 6 115 -9 132 -6 8 -32 17 -58 20 -69 10 -145 27 -158 37 -6 5 -40
20 -77 33 -91 35 -240 139 -298 208 -61 74 -109 156 -138 238 -13 36 -27 74
-32 85 -4 11 -18 49 -30 85 -48 141 -158 327 -241 407 -91 88 -238 153 -346
153 -43 0 -54 -4 -71 -26z"/>
<path d="M5861 3354 c-210 -70 -354 -254 -476 -609 -57 -165 -125 -289 -194
-355 -29 -27 -146 -117 -187 -142 -60 -38 -183 -88 -234 -95 -25 -3 -70 -14
-100 -24 l-55 -18 0 -73 0 -73 55 3 c30 1 66 6 80 11 14 5 61 19 105 31 44 13
89 29 100 35 11 7 43 21 70 31 50 17 203 124 260 181 100 99 180 231 230 378
137 411 262 561 485 588 78 10 113 75 69 131 -18 23 -27 26 -77 25 -32 0 -89
-11 -131 -25z"/>
<path d="M4096 1844 c-9 -22 21 -139 50 -194 44 -86 162 -210 200 -210 23 0
36 39 29 83 -11 66 -42 116 -124 202 -43 44 -85 92 -94 108 -19 30 -51 36 -61
11z"/>
<path d="M4797 1822 c-13 -21 -60 -77 -104 -124 -66 -71 -82 -95 -98 -146 -21
-71 -12 -112 25 -112 32 0 160 135 194 205 35 72 60 184 44 202 -18 22 -34 15
-61 -25z"/>
<path d="M3747 1514 c-35 -35 64 -119 192 -163 124 -43 371 -39 371 5 0 26
-77 91 -131 112 -39 14 -100 23 -214 30 -88 6 -171 13 -185 17 -14 4 -29 3
-33 -1z"/>
<path d="M5159 1510 c-8 -5 -80 -12 -160 -15 -174 -7 -232 -23 -294 -77 -87
-77 -47 -104 140 -95 132 6 211 30 306 93 66 43 91 80 66 96 -16 10 -38 10
-58 -2z"/>
</g>
</svg>
