<?xml version="1.0" standalone="no"?>
<!DOCTYPE svg PUBLIC "-//W3C//DTD SVG 20010904//EN"
 "http://www.w3.org/TR/2001/REC-SVG-20010904/DTD/svg10.dtd">
<svg version="1.0" xmlns="http://www.w3.org/2000/svg"
 width="900.000000pt" height="429.000000pt" viewBox="0 0 900.000000 429.000000"
 preserveAspectRatio="xMidYMid meet">
<metadata>
Created by potrace 1.10, written by Peter Selinger 2001-2011
</metadata>
<g transform="translate(0.000000,429.000000) scale(0.100000,-0.100000)"
fill="#5423a4" stroke="none">
<path d="M0 2145 l0 -2145 4500 0 4500 0 0 2145 0 2145 -4500 0 -4500 0 0
-2145z m3090 1554 c271 -53 547 -210 757 -433 98 -103 169 -208 255 -376 73
-142 104 -194 148 -243 16 -19 36 -47 44 -62 13 -24 13 -31 -1 -51 -8 -13 -23
-24 -33 -24 -38 0 -152 155 -235 320 -27 52 -64 122 -83 155 -138 235 -394
450 -662 558 -146 58 -218 72 -375 72 -128 0 -147 -3 -220 -29 -126 -44 -203
-96 -309 -207 -110 -114 -125 -136 -100 -146 9 -3 72 -1 140 6 135 14 173 10
200 -20 29 -32 21 -79 -25 -150 -46 -71 -44 -82 23 -99 128 -33 154 -90 94
-207 -17 -34 -30 -65 -27 -68 3 -2 39 -9 79 -15 86 -12 112 -26 130 -70 12
-29 10 -37 -16 -93 -16 -34 -37 -73 -46 -86 -10 -13 -18 -35 -18 -48 0 -32 44
-71 89 -78 20 -3 65 -12 101 -20 36 -8 103 -14 149 -14 68 0 89 -3 110 -19 33
-24 33 -53 1 -68 -14 -7 -56 -28 -93 -46 -38 -18 -78 -46 -90 -63 -29 -40 -35
-137 -12 -207 50 -154 24 -250 -92 -329 l-44 -31 50 -53 c87 -92 81 -161 -26
-268 -72 -73 -73 -87 -7 -87 47 0 174 -30 216 -51 52 -27 95 -83 118 -160 24
-78 32 -82 123 -67 124 20 270 50 286 58 9 5 45 18 80 31 109 39 284 155 366
244 11 12 36 40 56 62 39 43 67 56 93 41 29 -16 18 -55 -33 -115 -191 -229
-487 -379 -816 -414 -136 -14 -184 -5 -214 44 -10 17 -22 46 -26 62 -25 117
-73 147 -272 170 -60 7 -114 27 -133 50 -8 9 -13 32 -13 51 1 30 14 49 87 124
47 49 86 96 86 103 0 8 -25 39 -56 69 -48 47 -57 62 -61 100 -6 48 -17 34 117
147 37 31 40 37 40 86 0 29 -9 81 -21 116 -36 111 -15 256 43 297 24 17 14 32
-20 32 -40 1 -162 46 -206 77 -85 61 -95 137 -32 239 20 33 36 65 36 71 0 12
-22 18 -107 28 -59 8 -98 37 -109 81 -6 22 1 44 32 101 24 45 35 76 29 81 -6
5 -38 17 -73 27 -71 21 -112 59 -112 103 0 25 19 70 55 132 20 34 5 44 -45 30
-23 -6 -91 -12 -152 -13 l-110 -2 -24 30 c-13 17 -24 41 -24 55 0 52 98 185
210 285 171 153 354 218 585 208 50 -2 115 -9 145 -14z m3134 2 c228 -66 330
-130 477 -297 136 -155 144 -250 24 -269 -39 -6 -207 8 -252 21 -19 5 -23 2
-23 -14 0 -12 5 -24 11 -28 19 -12 49 -88 49 -126 0 -28 -7 -44 -27 -63 -25
-23 -106 -55 -139 -55 -24 0 -21 -28 8 -75 50 -80 48 -145 -5 -179 -12 -8 -53
-20 -92 -26 -38 -6 -73 -16 -76 -22 -4 -7 6 -31 22 -54 35 -51 54 -128 45
-177 -11 -61 -126 -133 -232 -146 -35 -4 -66 -10 -70 -14 -3 -3 5 -21 19 -39
61 -80 70 -180 28 -303 -39 -115 -23 -170 69 -226 106 -65 106 -117 1 -215
-57 -53 -53 -71 35 -155 36 -35 72 -76 80 -91 41 -77 -10 -130 -137 -143 -180
-20 -241 -52 -259 -139 -26 -127 -75 -154 -246 -137 -306 30 -557 144 -755
341 -104 103 -123 131 -115 165 9 34 58 35 89 1 97 -104 151 -154 207 -196
167 -123 304 -173 603 -221 92 -14 110 -5 121 62 13 81 57 138 136 177 28 14
171 42 212 42 47 0 42 20 -20 84 -110 111 -117 178 -29 266 l52 51 -25 20
c-82 64 -101 84 -120 126 -26 59 -25 87 7 213 34 134 29 168 -33 227 -47 45
-111 83 -142 83 -10 0 -23 5 -30 12 -18 18 -15 66 6 77 9 5 76 12 147 15 76 3
147 12 170 20 22 8 49 15 60 16 20 0 51 22 73 51 15 19 7 40 -45 128 -19 31
-33 69 -33 87 0 62 60 104 151 104 19 0 43 6 52 13 15 11 14 16 -14 61 -70
112 -43 182 83 211 74 16 80 32 35 97 -64 94 -60 158 13 178 35 9 194 0 273
-16 66 -14 36 45 -93 177 -283 291 -724 289 -1155 -5 -99 -68 -256 -217 -329
-314 -27 -35 -86 -135 -131 -222 -126 -240 -205 -350 -251 -350 -23 0 -44 25
-44 53 0 8 20 39 43 68 51 63 126 186 190 314 112 224 274 403 497 549 147 97
296 160 475 204 52 12 319 15 359 3z m-1286 -331 c1 -10 -23 -29 -67 -54 -154
-86 -260 -229 -296 -397 -22 -106 -23 -2084 -1 -2146 44 -126 127 -210 289
-293 51 -26 72 -43 72 -56 0 -18 -17 -19 -449 -22 -462 -2 -493 0 -464 35 7 8
35 25 63 38 117 51 219 139 273 235 l37 65 0 1065 c0 1184 6 1083 -68 1230
-41 83 -149 194 -239 246 -64 36 -77 51 -61 67 3 4 209 6 457 5 391 -3 451 -5
454 -18z m-1859 -10 c126 -37 234 -118 314 -235 54 -78 128 -223 156 -305 12
-36 26 -74 30 -85 5 -11 19 -49 32 -85 29 -82 77 -164 138 -238 58 -69 207
-173 298 -208 37 -13 71 -28 77 -33 13 -10 89 -27 158 -37 26 -3 52 -12 58
-20 15 -17 20 -102 9 -132 -9 -22 -14 -24 -57 -20 -26 3 -94 20 -152 37 -227
71 -309 116 -452 251 -91 86 -146 161 -195 269 -48 106 -51 113 -58 141 -13
49 -58 166 -92 239 -97 205 -209 298 -395 326 -41 6 -78 44 -78 80 0 12 9 34
21 49 17 22 28 26 71 26 28 0 81 -9 117 -20z m2990 -6 c44 -56 9 -121 -69
-131 -223 -27 -348 -177 -485 -588 -50 -147 -130 -279 -230 -378 -57 -57 -210
-164 -260 -181 -27 -10 -59 -24 -70 -31 -11 -6 -56 -22 -100 -35 -44 -12 -91
-26 -105 -31 -14 -5 -50 -10 -80 -11 l-55 -3 0 73 0 73 55 18 c30 10 75 21
100 24 51 7 174 57 234 95 41 25 158 115 187 142 69 66 137 190 194 355 95
277 210 456 349 549 70 46 186 85 258 85 50 1 59 -2 77 -25z m-1912 -1521 c9
-16 51 -64 94 -108 82 -86 113 -136 124 -202 7 -44 -6 -83 -29 -83 -38 0 -156
124 -200 210 -29 55 -59 172 -50 194 10 25 42 19 61 -11z m701 14 c16 -18 -9
-130 -44 -202 -34 -70 -162 -205 -194 -205 -37 0 -46 41 -25 112 16 51 32 75
98 146 44 47 91 103 104 124 27 40 43 47 61 25z m-893 -349 c114 -7 175 -16
214 -30 54 -21 131 -86 131 -112 0 -28 -68 -39 -190 -33 -159 8 -237 35 -337
115 -57 44 -59 91 -3 77 14 -4 97 -11 185 -17z m1252 14 c25 -16 0 -53 -66
-96 -95 -63 -174 -87 -306 -93 -187 -9 -227 18 -140 95 62 54 120 70 294 77
80 3 152 10 160 15 20 12 42 12 58 2z"/>
</g>
</svg>
