<?xml version="1.0" standalone="no"?>
<!DOCTYPE svg PUBLIC "-//W3C//DTD SVG 20010904//EN"
 "http://www.w3.org/TR/2001/REC-SVG-20010904/DTD/svg10.dtd">
<svg version="1.0" xmlns="http://www.w3.org/2000/svg"
 width="300.000000pt" height="264.000000pt" viewBox="0 0 300.000000 264.000000"
 preserveAspectRatio="xMidYMid meet">
<metadata>
Created by potrace 1.10, written by Peter Selinger 2001-2011
</metadata>
<g transform="translate(0.000000,264.000000) scale(0.100000,-0.100000)"
fill="#ffffff" stroke="none">
<path d="M362 2271 c-78 -29 -131 -63 -194 -123 -99 -94 -128 -156 -91 -194
15 -14 30 -16 110 -10 51 3 93 4 93 1 0 -3 -9 -22 -20 -42 -11 -21 -20 -45
-20 -55 0 -16 44 -58 61 -58 4 0 19 -4 34 -10 l26 -10 -21 -39 c-23 -46 -26
-84 -7 -99 7 -7 37 -16 65 -23 29 -6 52 -14 52 -18 0 -4 -11 -22 -25 -41 -32
-43 -33 -90 -2 -125 23 -26 115 -65 154 -65 l22 0 -25 -37 c-27 -40 -28 -58
-8 -225 5 -38 2 -49 -13 -62 -10 -8 -33 -27 -50 -41 -42 -34 -41 -56 2 -104
19 -21 35 -45 35 -52 0 -8 -22 -38 -50 -66 -84 -86 -64 -124 73 -138 82 -9
121 -36 131 -91 11 -57 36 -74 109 -74 84 0 243 42 327 85 78 42 182 125 223
179 23 30 26 40 17 51 -7 8 -16 15 -20 15 -4 0 -38 -31 -76 -68 -79 -79 -180
-141 -275 -170 -76 -23 -211 -44 -232 -36 -8 3 -17 22 -21 42 -3 20 -15 47
-25 60 -26 30 -93 58 -158 67 -29 4 -53 10 -53 13 0 3 18 25 40 47 27 27 43
54 46 77 5 31 1 41 -30 76 l-36 40 27 18 c68 44 84 95 60 195 -26 108 4 166
96 186 16 3 31 12 34 20 11 28 -17 40 -100 46 -92 6 -115 10 -154 29 -32 15
-42 51 -21 76 19 23 38 69 38 92 0 27 -38 50 -82 50 -20 0 -39 4 -43 9 -3 5 5
30 17 55 29 60 17 90 -44 107 -24 7 -47 16 -52 20 -4 4 4 28 19 53 52 89 19
114 -125 98 -41 -5 -77 -8 -79 -6 -18 16 130 161 200 196 198 98 479 27 696
-176 81 -75 117 -125 193 -265 91 -170 129 -213 158 -178 8 10 7 20 -6 38 -9
14 -33 50 -53 80 -20 30 -53 88 -74 129 -98 195 -281 356 -497 436 -62 23 -92
28 -198 31 -106 3 -133 0 -178 -16z"/>
<path d="M2289 2271 c-192 -53 -388 -193 -498 -356 -18 -26 -48 -80 -68 -119
-19 -39 -55 -99 -79 -134 -48 -68 -53 -89 -27 -99 25 -10 69 49 154 205 64
117 86 148 164 226 269 270 624 319 828 114 55 -55 93 -105 85 -113 -2 -3 -44
0 -92 6 -75 9 -90 8 -112 -5 -31 -21 -31 -47 1 -94 34 -50 32 -59 -16 -67 -43
-8 -79 -35 -79 -60 0 -9 9 -33 20 -55 11 -22 20 -44 20 -50 0 -5 -20 -10 -45
-10 -32 0 -51 -6 -65 -20 -26 -26 -25 -46 5 -99 28 -48 31 -74 13 -88 -28 -22
-88 -36 -178 -42 -89 -6 -95 -7 -98 -29 -2 -14 3 -24 15 -28 54 -18 74 -28
102 -56 36 -35 39 -61 15 -147 -26 -91 -8 -140 70 -195 19 -13 18 -15 -15 -44
-28 -25 -34 -37 -34 -71 0 -35 7 -47 49 -90 l49 -49 -59 -7 c-68 -8 -131 -33
-157 -63 -10 -11 -24 -40 -32 -64 l-13 -43 -67 3 c-74 4 -213 40 -278 74 -58
29 -144 97 -194 153 -44 49 -66 54 -71 17 -5 -35 127 -158 225 -209 146 -77
386 -120 426 -75 8 9 20 36 26 59 16 58 48 80 129 89 137 14 158 55 72 139
-27 27 -50 56 -50 65 0 9 16 31 35 50 48 47 45 69 -16 121 -51 42 -51 43 -46
88 4 25 10 65 15 89 11 52 1 105 -28 144 -19 26 -19 28 -3 29 70 5 118 23 161
62 29 27 28 71 -3 126 -14 23 -25 45 -25 47 0 2 17 6 38 9 62 11 72 16 88 41
15 22 15 27 -10 74 -19 37 -23 52 -14 55 7 3 31 11 53 18 53 19 66 52 40 104
-11 21 -21 42 -23 46 -2 4 36 5 85 1 104 -8 133 2 133 44 0 66 -130 202 -248
259 -73 35 -83 37 -192 40 -88 2 -130 -1 -181 -16z"/>
<path d="M1205 2091 c-3 -6 18 -25 47 -44 106 -68 162 -153 178 -272 6 -41 9
-323 8 -675 -3 -549 -5 -608 -20 -636 -23 -42 -110 -119 -166 -147 -89 -44
-75 -47 227 -47 168 0 282 4 286 10 3 5 -14 19 -37 31 -75 38 -137 90 -166
137 l-27 47 0 660 0 660 32 67 c35 74 88 133 153 169 25 13 44 29 45 34 0 13
-551 19 -560 6z"/>
<path d="M517 2078 c-22 -16 -20 -57 3 -69 8 -5 41 -15 73 -24 107 -29 173
-113 247 -317 63 -175 118 -251 240 -333 66 -45 232 -106 294 -109 29 -1 31 1
34 38 2 21 0 42 -5 47 -5 5 -33 13 -63 19 -30 5 -64 14 -75 19 -104 47 -141
68 -186 109 -67 60 -108 125 -147 235 -58 162 -119 266 -187 320 -74 59 -192
92 -228 65z"/>
<path d="M2335 2073 c-128 -39 -211 -143 -292 -368 -42 -116 -82 -183 -147
-241 -72 -65 -141 -101 -250 -128 l-81 -21 0 -45 c0 -44 1 -45 30 -42 92 8
254 74 333 136 94 74 145 152 203 309 79 214 152 300 274 322 50 9 65 21 65
51 0 44 -48 54 -135 27z"/>
<path d="M1254 1118 c4 -24 17 -62 29 -86 25 -50 112 -136 128 -126 16 10 4
83 -18 110 -130 160 -151 175 -139 102z"/>
<path d="M1658 1112 c-21 -26 -52 -63 -69 -83 -19 -23 -33 -52 -36 -77 -8 -63
12 -62 77 6 44 45 62 73 74 113 31 102 14 117 -46 41z"/>
<path d="M1030 935 c0 -15 61 -58 115 -81 40 -17 216 -27 230 -12 15 14 -20
51 -68 73 -41 18 -76 24 -164 28 -86 3 -113 2 -113 -8z"/>
<path d="M1805 940 c-70 -4 -114 -12 -147 -27 -44 -20 -77 -57 -63 -71 4 -4
48 -7 98 -6 96 1 151 17 217 64 33 24 40 51 13 48 -10 -1 -63 -4 -118 -8z"/>
</g>
</svg>
