<?xml version="1.0" standalone="no"?>
<!DOCTYPE svg PUBLIC "-//W3C//DTD SVG 20010904//EN"
 "http://www.w3.org/TR/2001/REC-SVG-20010904/DTD/svg10.dtd">
<svg version="1.0" xmlns="http://www.w3.org/2000/svg"
 width="300.000000pt" height="264.000000pt" viewBox="0 0 300.000000 264.000000"
 preserveAspectRatio="xMidYMid meet">
<metadata>
Created by potrace 1.10, written by Peter Selinger 2001-2011
</metadata>
<g transform="translate(0.000000,264.000000) scale(0.050000,-0.050000)"
fill="#8742f5" stroke="none">
<path d="M0 2640 l0 -2640 3000 0 3000 0 0 2640 0 2640 -3000 0 -3000 0 0
-2640z m1476 1872 c432 -161 798 -482 994 -872 41 -82 108 -199 148 -258 39
-60 87 -131 106 -159 25 -37 29 -58 13 -77 -58 -70 -135 17 -318 355 -548
1018 -1657 1302 -2150 551 -45 -69 -44 -69 131 -49 288 34 354 -18 250 -195
-60 -102 -56 -111 66 -146 121 -34 146 -94 87 -214 -52 -108 -44 -128 54 -128
170 0 211 -134 88 -283 -95 -114 32 -191 350 -211 206 -14 291 -98 132 -132
-185 -40 -245 -156 -193 -373 48 -199 17 -301 -120 -390 l-54 -36 72 -80 c94
-104 86 -185 -31 -304 -102 -104 -102 -104 24 -121 216 -29 343 -116 367 -254
16 -93 36 -100 221 -74 343 47 604 173 835 402 148 147 155 151 191 107 92
-110 -432 -485 -812 -581 -359 -91 -508 -64 -538 99 -21 109 -100 163 -263
181 -274 29 -313 103 -146 276 119 123 121 136 30 237 -87 96 -88 139 -5 207
36 29 82 66 102 83 30 24 35 48 25 123 -40 333 -39 370 15 449 l52 75 -45 0
c-257 0 -427 213 -304 380 67 91 66 93 -54 119 -168 36 -194 89 -115 242 l40
80 -52 19 c-28 11 -59 20 -68 20 -96 0 -139 118 -81 225 22 41 40 80 40 85 0
6 -84 5 -186 -2 -332 -24 -345 117 -39 408 301 286 733 367 1141 216z m3848
-18 c236 -114 496 -385 496 -518 0 -84 -58 -103 -266 -88 -98 8 -175 7 -170
-2 4 -9 24 -50 45 -91 54 -105 28 -172 -79 -208 -44 -15 -91 -32 -105 -37 -19
-7 -12 -36 27 -110 76 -146 42 -196 -157 -229 -89 -15 -87 -6 -25 -114 117
-205 -10 -355 -316 -375 -32 -2 -32 -6 7 -59 57 -77 78 -183 56 -287 -53 -249
-52 -260 61 -354 123 -103 129 -148 32 -242 -92 -89 -89 -113 30 -230 171
-169 129 -250 -144 -279 -163 -17 -226 -61 -257 -177 -47 -174 -175 -198 -547
-104 -353 90 -829 415 -808 554 11 74 55 63 142 -34 238 -267 592 -437 944
-454 l135 -6 26 87 c46 154 154 226 377 253 l117 14 -97 98 c-127 129 -136
227 -29 323 65 58 66 62 29 88 -157 110 -191 206 -141 389 48 172 43 223 -29
294 -57 55 -96 77 -204 112 -24 8 -35 27 -30 57 6 42 19 46 196 58 361 24 433
80 330 260 -86 151 -43 237 120 237 102 0 106 10 50 120 -68 134 -32 204 118
230 95 16 100 34 32 134 -112 165 -39 230 223 198 200 -25 205 -23 156 52
-478 731 -1594 459 -2127 -518 -170 -312 -259 -429 -309 -410 -52 20 -40 62
55 198 48 69 119 190 159 269 384 766 1272 1192 1877 901z m-1795 -324 c0 -11
-40 -42 -88 -68 -130 -72 -237 -190 -308 -339 l-63 -133 0 -1320 0 -1320 55
-93 c56 -96 181 -199 331 -275 145 -73 93 -82 -499 -82 -604 0 -630 5 -453 94
112 56 286 210 332 294 40 73 62 2356 25 2622 -33 237 -145 409 -357 544 -58
37 -100 77 -93 87 16 27 1119 16 1118 -11z m-2198 -48 c231 -103 378 -305 532
-736 132 -366 271 -510 667 -688 22 -10 89 -27 149 -38 135 -25 145 -35 137
-132 -8 -99 -47 -100 -329 -9 -425 136 -640 354 -808 816 -148 408 -278 576
-493 635 -152 42 -175 55 -183 111 -15 105 138 125 328 41z m3570 37 c91 -48
39 -145 -90 -168 -245 -44 -392 -217 -549 -645 -181 -492 -418 -717 -902 -854
-210 -60 -230 -56 -230 48 l0 90 162 41 c419 107 641 313 794 739 162 449 328
658 584 737 121 37 180 40 231 12z m-2251 -1962 c55 -66 116 -141 136 -166 44
-53 68 -200 37 -219 -67 -42 -288 256 -315 423 -19 120 19 110 142 -38z m790
87 c0 -157 -246 -520 -320 -474 -43 26 -9 168 59 247 34 40 95 115 136 167 79
98 125 121 125 60z m-827 -454 c98 -44 166 -117 137 -147 -29 -28 -379 -9
-460 25 -108 46 -230 132 -230 162 0 46 430 15 553 -40z m1267 41 c0 -117
-597 -280 -690 -188 -74 73 157 182 420 198 110 7 216 14 235 16 19 1 35 -10
35 -26z"/>
</g>
</svg>
