<?xml version="1.0" standalone="no"?>
<!DOCTYPE svg PUBLIC "-//W3C//DTD SVG 20010904//EN"
 "http://www.w3.org/TR/2001/REC-SVG-20010904/DTD/svg10.dtd">
<svg version="1.0" xmlns="http://www.w3.org/2000/svg"
 width="300.000000pt" height="264.000000pt" viewBox="0 0 300.000000 264.000000"
 preserveAspectRatio="xMidYMid meet">
<metadata>
Created by potrace 1.10, written by Peter Selinger 2001-2011
</metadata>
<g transform="translate(0.000000,264.000000) scale(0.050000,-0.050000)"
fill="#8742f5" stroke="none">
<path d="M723 4541 c-273 -101 -603 -403 -603 -552 0 -96 50 -116 254 -101
102 7 186 8 186 2 0 -5 -18 -44 -40 -85 -58 -107 -15 -225 81 -225 9 0 40 -9
68 -20 l52 -19 -40 -80 c-79 -153 -53 -206 115 -242 120 -26 121 -28 54 -119
-123 -167 47 -380 304 -380 l45 0 -52 -75 c-54 -79 -55 -116 -15 -449 10 -75
5 -99 -25 -123 -20 -17 -66 -54 -102 -83 -83 -68 -82 -111 5 -207 91 -101 89
-114 -30 -237 -167 -173 -128 -247 146 -276 163 -18 242 -72 263 -181 30 -163
179 -190 538 -99 380 96 904 471 812 581 -36 44 -43 40 -191 -107 -231 -229
-492 -355 -835 -402 -185 -26 -205 -19 -221 74 -24 138 -151 225 -367 254
-126 17 -126 17 -24 121 117 119 125 200 31 304 l-72 80 54 36 c137 89 168
191 120 390 -52 217 8 333 193 373 159 34 74 118 -132 132 -318 20 -445 97
-350 211 123 149 82 283 -88 283 -98 0 -106 20 -54 128 59 120 34 180 -87 214
-122 35 -126 44 -66 146 104 177 38 229 -250 195 -175 -20 -176 -20 -131 49
493 751 1602 467 2150 -551 183 -338 260 -425 318 -355 16 19 12 40 -13 77
-19 28 -67 99 -106 159 -40 59 -107 176 -148 258 -334 664 -1193 1107 -1747
901z"/>
<path d="M4577 4543 c-486 -136 -894 -478 -1130 -950 -40 -79 -111 -200 -159
-269 -95 -136 -107 -178 -55 -198 50 -19 139 98 309 410 533 977 1649 1249
2127 518 49 -75 44 -77 -156 -52 -262 32 -335 -33 -223 -198 68 -100 63 -118
-32 -134 -150 -26 -186 -96 -118 -230 56 -110 52 -120 -50 -120 -163 0 -206
-86 -120 -237 103 -180 31 -236 -330 -260 -177 -12 -190 -16 -196 -58 -5 -30
6 -49 30 -57 250 -81 300 -167 233 -406 -50 -183 -16 -279 141 -389 37 -26 36
-30 -29 -88 -107 -96 -98 -194 29 -323 l97 -98 -117 -14 c-223 -27 -331 -99
-377 -253 l-26 -87 -135 6 c-352 17 -706 187 -944 454 -87 97 -131 108 -142
34 -21 -139 455 -464 808 -554 372 -94 500 -70 547 104 31 116 94 160 257 177
273 29 315 110 144 279 -119 117 -122 141 -30 230 97 94 91 139 -32 242 -113
94 -114 105 -61 354 22 104 1 210 -56 287 -39 53 -39 57 -7 59 306 20 433 170
316 375 -62 108 -64 99 25 114 199 33 233 83 157 229 -39 74 -46 103 -27 110
14 5 61 22 105 37 107 36 133 103 79 208 -21 41 -41 82 -45 91 -5 9 72 10 170
2 346 -26 363 99 55 403 -267 263 -654 357 -1032 252z"/>
<path d="M2411 4181 c-7 -10 35 -50 93 -87 212 -135 324 -307 357 -544 37
-266 15 -2549 -25 -2622 -46 -84 -220 -238 -332 -294 -177 -89 -151 -94 453
-94 592 0 644 9 499 82 -150 76 -275 179 -331 275 l-55 93 0 1320 0 1320 63
133 c71 149 178 267 308 339 48 26 88 57 88 68 1 27 -1102 38 -1118 11z"/>
<path d="M1033 4155 c-88 -66 -32 -134 153 -185 215 -59 345 -227 493 -635
168 -462 383 -680 808 -816 282 -91 321 -90 329 9 8 97 -2 107 -137 132 -60
11 -127 28 -149 38 -396 178 -535 322 -667 688 -116 323 -238 532 -374 640
-147 118 -382 185 -456 129z"/>
<path d="M4670 4147 c-256 -79 -422 -288 -584 -737 -153 -426 -375 -632 -794
-739 l-162 -41 0 -90 c0 -104 20 -108 230 -48 484 137 721 362 902 854 157
428 304 601 549 645 99 18 129 41 129 101 0 88 -97 108 -270 55z"/>
<path d="M2508 2235 c27 -167 248 -465 315 -423 31 19 7 166 -37 219 -260 321
-301 351 -278 204z"/>
<path d="M3315 2224 c-41 -52 -102 -127 -136 -167 -68 -79 -102 -221 -59 -247
44 -27 253 212 289 331 60 204 27 234 -94 83z"/>
<path d="M2060 1870 c0 -30 122 -116 230 -162 81 -34 431 -53 460 -25 29 30
-39 103 -137 147 -123 55 -553 86 -553 40z"/>
<path d="M3610 1881 c-263 -16 -494 -125 -420 -198 34 -33 381 -10 476 33 175
78 287 191 179 181 -19 -2 -125 -9 -235 -16z"/>
</g>
</svg>
